<?xml version="1.0" encoding="UTF-8" standalone="no" ?>
<!DOCTYPE svg PUBLIC "-//W3C//DTD SVG 1.1//EN" "http://www.w3.org/Graphics/SVG/1.1/DTD/svg11.dtd">
<svg xmlns="http://www.w3.org/2000/svg" xmlns:xlink="http://www.w3.org/1999/xlink" version="1.1" width="1080" height="1080" viewBox="0 0 1080 1080" xml:space="preserve">
<desc>Created with Fabric.js 5.2.4</desc>
<defs>
</defs>
<g transform="matrix(1 0 0 1 540 540)" id="53ab64ac-2934-4eb2-8e1a-e44b0aa6d398"  >
<rect style="stroke: none; stroke-width: 1; stroke-dasharray: none; stroke-linecap: butt; stroke-dashoffset: 0; stroke-linejoin: miter; stroke-miterlimit: 4; fill: rgb(255,255,255); fill-rule: nonzero; opacity: 1; visibility: hidden;" vector-effect="non-scaling-stroke"  x="-540" y="-540" rx="0" ry="0" width="1080" height="1080" />
</g>
<g transform="matrix(1 0 0 1 540 540)" id="4aff504e-2564-459b-a8fe-754f79743d45"  >
</g>
<g transform="matrix(11.83 0 0 11.77 540.17 539.62)" id="87b92b06-ccbf-41c6-b06a-b5b03449c565"  >
<circle style="stroke: rgb(0,0,0); stroke-width: 0; stroke-dasharray: none; stroke-linecap: butt; stroke-dashoffset: 0; stroke-linejoin: miter; stroke-miterlimit: 4; fill: rgb(0,0,0); fill-rule: nonzero; opacity: 1;" vector-effect="non-scaling-stroke"  cx="0" cy="0" r="35" />
</g>
<g transform="matrix(1 0 0 1 540 540)"  >
<g style="" vector-effect="non-scaling-stroke"   >
		<g transform="matrix(53.33 0 0 53.33 0 -133.34)"  >
<path style="stroke: none; stroke-width: 1; stroke-dasharray: none; stroke-linecap: butt; stroke-dashoffset: 0; stroke-linejoin: miter; stroke-miterlimit: 4; fill: rgb(255,255,255); fill-rule: nonzero; opacity: 1;" vector-effect="non-scaling-stroke"  transform=" translate(-7.5, -5)" d="M 7.5 4 C 6.67157 4 6 4.67157 6 5.5 L 6 6 L 9 6 L 9 5.5 C 9 4.67157 8.32843 4 7.5 4 Z" stroke-linecap="round" />
</g>
		<g transform="matrix(53.33 0 0 53.33 -0.02 -0.02)"  >
<path style="stroke: none; stroke-width: 1; stroke-dasharray: none; stroke-linecap: butt; stroke-dashoffset: 0; stroke-linejoin: miter; stroke-miterlimit: 4; fill: rgb(255,255,255); fill-rule: evenodd; opacity: 1;" vector-effect="non-scaling-stroke"  transform=" translate(-7.5, -7.5)" d="M 7.5 0 C 11.6421 0 15 3.35786 15 7.5 C 15 11.6421 11.6421 15 7.5 15 C 3.35786 15 -0.00000254447 11.6421 0 7.5 C 0 3.35786 3.35786 -0.00000254447 7.5 0 Z M 5 5.5 L 5 6.08535 C 4.4174 6.29127 4 6.84689 4 7.5 L 4 10.5 C 4 11.3284 4.67157 12 5.5 12 L 9.5 12 C 10.3284 12 11 11.3284 11 10.5 L 11 7.5 C 11 6.84689 10.5826 6.29127 10 6.08535 L 10 5.5 C 10 4.11929 8.88071 3 7.5 3 C 6.11929 3 5 4.11929 5 5.5 Z" stroke-linecap="round" />
</g>
</g>
</g>
</svg>